<svg version="1.1" xmlns="http://www.w3.org/2000/svg" xmlns:xlink="http://www.w3.org/1999/xlink" width="461.2804" height="384.26944" viewBox="0,0,461.2804,384.26944"><defs><linearGradient x1="246.4627" y1="13.82634" x2="246.4627" y2="389.70021" gradientUnits="userSpaceOnUse" id="color-1"><stop offset="0" stop-color="#1a1a1a"></stop><stop offset="1" stop-color="#1a1a1a" stop-opacity="0"></stop></linearGradient></defs><g transform="translate(-12.17328,-5.43077)"><g data-paper-data="{&quot;isPaintingLayer&quot;:true}" fill-rule="nonzero" stroke-linecap="round" stroke-linejoin="miter" stroke-miterlimit="10" stroke-dasharray="" stroke-dashoffset="0" style="mix-blend-mode: normal"><path d="M85.04227,15.33385l68.06907,11.4985l75.06306,20.52252l43.03904,-28.02402l45.54354,27.02402l52.06306,-32.52853l81.57958,32.51051l0.4955,60.55556l22.55856,100.0961l-14.03003,39.52252l-42.51051,31.06006l-45.55856,2.003l-6.02402,24.54054l9.5045,51.53453l-9.5045,23.54054l-205.70571,10.51051l-53.06006,-67.04805l9.01502,-45.54054l-36.51652,-9.53754l-42.54354,-0.97898l-7.51351,-35.53754l-9.53453,-31.52252l14.51051,-55.53754l6.50751,-58.55856l21.03303,-20.53754z" fill="url(#color-1)" stroke="none" stroke-width="0"></path><path d="M79.04227,8.33385l68.06907,11.4985l75.06306,20.52252l43.03904,-28.02402l45.54354,27.02402l52.06306,-32.52853l81.57958,32.51051l0.4955,60.55556l22.55856,100.0961l-14.03003,39.52252l-42.51051,31.06006l-45.55856,2.003l-6.02402,24.54054l9.5045,51.53453l-9.5045,23.54054l-205.70571,10.51051l-53.06006,-67.04805l9.01502,-45.54054l-36.51652,-9.53754l-42.54354,-0.97898l-7.51351,-35.53754l-9.53453,-31.52252l14.51051,-55.53754l6.50751,-58.55856l21.03303,-20.53754z" fill="#ffffff" stroke="#ff0000" stroke-width="2.5"></path></g></g></svg>