<svg version="1.1" xmlns="http://www.w3.org/2000/svg" xmlns:xlink="http://www.w3.org/1999/xlink" width="464.79469" height="322.29995" viewBox="0,0,464.79469,322.29995"><defs><linearGradient x1="51.70638" y1="58.46317" x2="51.70638" y2="83.83204" gradientUnits="userSpaceOnUse" id="color-1"><stop offset="0" stop-color="#218200"></stop><stop offset="1" stop-color="#010100"></stop></linearGradient><linearGradient x1="51.93364" y1="87.32471" x2="51.93364" y2="112.69358" gradientUnits="userSpaceOnUse" id="color-2"><stop offset="0" stop-color="#218200"></stop><stop offset="1" stop-color="#010100"></stop></linearGradient><linearGradient x1="52.00094" y1="146.98474" x2="52.00094" y2="172.35361" gradientUnits="userSpaceOnUse" id="color-3"><stop offset="0" stop-color="#218200"></stop><stop offset="1" stop-color="#010100"></stop></linearGradient><linearGradient x1="51.70638" y1="116.98707" x2="51.70638" y2="142.35593" gradientUnits="userSpaceOnUse" id="color-4"><stop offset="0" stop-color="#218200"></stop><stop offset="1" stop-color="#010100"></stop></linearGradient><linearGradient x1="51.96123" y1="176.55305" x2="51.96123" y2="201.92192" gradientUnits="userSpaceOnUse" id="color-5"><stop offset="0" stop-color="#218200"></stop><stop offset="1" stop-color="#010100"></stop></linearGradient><linearGradient x1="51.70638" y1="28.66804" x2="51.70638" y2="54.03691" gradientUnits="userSpaceOnUse" id="color-6"><stop offset="0" stop-color="#218200"></stop><stop offset="1" stop-color="#010100"></stop></linearGradient><linearGradient x1="52.18695" y1="206.34816" x2="52.18695" y2="231.71703" gradientUnits="userSpaceOnUse" id="color-7"><stop offset="0" stop-color="#218200"></stop><stop offset="1" stop-color="#010100"></stop></linearGradient><linearGradient x1="52.18695" y1="236.14328" x2="52.18695" y2="261.51214" gradientUnits="userSpaceOnUse" id="color-8"><stop offset="0" stop-color="#218200"></stop><stop offset="1" stop-color="#010100"></stop></linearGradient><linearGradient x1="52.61057" y1="266.00873" x2="52.61057" y2="291.3776" gradientUnits="userSpaceOnUse" id="color-9"><stop offset="0" stop-color="#218200"></stop><stop offset="1" stop-color="#010100"></stop></linearGradient><linearGradient x1="52.61057" y1="296.93245" x2="52.61057" y2="322.30132" gradientUnits="userSpaceOnUse" id="color-10"><stop offset="0" stop-color="#218200"></stop><stop offset="1" stop-color="#010100"></stop></linearGradient><linearGradient x1="51.70638" y1="0.00137" x2="51.70638" y2="25.37024" gradientUnits="userSpaceOnUse" id="color-11"><stop offset="0" stop-color="#218200"></stop><stop offset="1" stop-color="#010100"></stop></linearGradient><linearGradient x1="436.29503" y1="19.7202" x2="436.29503" y2="45.08907" gradientUnits="userSpaceOnUse" id="color-12"><stop offset="0" stop-color="#23612f"></stop><stop offset="1" stop-color="#2b9d44"></stop></linearGradient><linearGradient x1="435.73365" y1="49.8247" x2="435.73365" y2="75.19357" gradientUnits="userSpaceOnUse" id="color-13"><stop offset="0" stop-color="#218200"></stop><stop offset="1" stop-color="#010100"></stop></linearGradient></defs><g transform="translate(-11.60336,-0.00137)"><g data-paper-data="{&quot;isPaintingLayer&quot;:true}" fill-rule="nonzero" stroke="none" stroke-width="0" stroke-linecap="butt" stroke-linejoin="miter" stroke-miterlimit="10" stroke-dasharray="" stroke-dashoffset="0" style="mix-blend-mode: normal"><path d="M11.60336,83.83204v-25.36887h80.20604v25.36887z" fill="url(#color-1)"></path><path d="M11.83062,112.69358v-25.36887h80.20604v25.36887z" fill="url(#color-2)"></path><path d="M11.89792,172.35361v-25.36887h80.20604v25.36887z" fill="url(#color-3)"></path><path d="M11.60336,142.35593v-25.36887h80.20604v25.36887z" fill="url(#color-4)"></path><path d="M11.85821,201.92192v-25.36887h80.20604v25.36887z" fill="url(#color-5)"></path><path d="M11.60336,54.03691v-25.36887h80.20604v25.36887z" fill="url(#color-6)"></path><path d="M12.08393,231.71703v-25.36887h80.20604v25.36887z" fill="url(#color-7)"></path><path d="M12.08393,261.51214v-25.36887h80.20604v25.36887z" fill="url(#color-8)"></path><path d="M12.50755,291.3776v-25.36887h80.20604v25.36887z" fill="url(#color-9)"></path><path d="M12.50755,322.30132v-25.36887h80.20604v25.36887z" fill="url(#color-10)"></path><path d="M11.60336,25.37024v-25.36887h80.20604v25.36887z" fill="url(#color-11)"></path><path d="M396.19201,45.08907v-25.36887h80.20604v25.36887z" fill="url(#color-12)"></path><path d="M395.63063,75.19357v-25.36887h80.20604v25.36887z" fill="url(#color-13)"></path></g></g></svg>