<svg version="1.1" xmlns="http://www.w3.org/2000/svg" xmlns:xlink="http://www.w3.org/1999/xlink" width="464.85447" height="384.23713" viewBox="0,0,464.85447,384.23713"><defs><linearGradient x1="244.70894" y1="7.31884" x2="244.70894" y2="384.19571" gradientUnits="userSpaceOnUse" id="color-1"><stop offset="0" stop-color="#000000"></stop><stop offset="1" stop-color="#000000" stop-opacity="0"></stop></linearGradient></defs><g transform="translate(-8.08268,0.04142)"><g data-paper-data="{&quot;isPaintingLayer&quot;:true}" fill-rule="nonzero" stroke-linecap="round" stroke-linejoin="miter" stroke-miterlimit="10" stroke-dasharray="" stroke-dashoffset="0" style="mix-blend-mode: normal"><path d="M97.5618,13.32485l49.54955,27.02703l46.54654,-16.51652l46.54655,12.01202l52.55255,7.5075l67.56756,-36.03604l69.06907,24.02402v63.06307l43.54354,51.05105l-13.51351,54.05405l-21.02102,64.56456l-57.05706,-1.5015l12.01202,40.54054l-30.03003,24.02402l3.00301,51.05105l-144.14415,6.00601l-112.61261,-27.02703l6.00601,-57.05706l-16.51652,-37.53754l-34.54354,8.02102l-16.51351,-26.53754l-31.52552,-19.02102l10.51051,-52.55256l-3.003,-52.55255l34.53453,-30.03003z" fill="url(#color-1)" stroke="none" stroke-width="0"></path><path d="M90.56179,7.32484l49.54955,27.02703l46.54654,-16.51652l46.54655,12.01202l52.55255,7.5075l67.56756,-36.03604l69.06907,24.02402v63.06307l43.54354,51.05105l-13.51351,54.05405l-21.02102,64.56456l-57.05706,-1.5015l12.01202,40.54054l-30.03003,24.02402l3.00301,51.05105l-144.14415,6.00601l-112.61261,-27.02703l6.00601,-57.05706l-16.51652,-37.53754l-34.54354,8.02102l-16.51351,-26.53754l-31.52552,-19.02102l10.51051,-52.55256l-3.003,-52.55255l34.53453,-30.03003z" fill="#ffffff" stroke="#00f4ff" stroke-width="2.5"></path></g></g></svg>