<svg version="1.1" xmlns="http://www.w3.org/2000/svg" xmlns:xlink="http://www.w3.org/1999/xlink" width="369.00005" height="259.16668" viewBox="0,0,369.00005,259.16668"><defs><linearGradient x1="133.57034" y1="12.5" x2="133.57034" y2="89.5" gradientUnits="userSpaceOnUse" id="color-1"><stop offset="0" stop-color="#a77248"></stop><stop offset="1" stop-color="#e0b8a3"></stop></linearGradient><linearGradient x1="203.67641" y1="6.33333" x2="203.67641" y2="78.99549" gradientUnits="userSpaceOnUse" id="color-2"><stop offset="0" stop-color="#db1b18"></stop><stop offset="1" stop-color="#ffe01c"></stop></linearGradient><linearGradient x1="279.20811" y1="6.33333" x2="279.20811" y2="79" gradientUnits="userSpaceOnUse" id="color-3"><stop offset="0" stop-color="#b75800"></stop><stop offset="1" stop-color="#ffda00"></stop></linearGradient><linearGradient x1="435.07039" y1="20.5" x2="435.07039" y2="98.5" gradientUnits="userSpaceOnUse" id="color-4"><stop offset="0" stop-color="#d1cf6b"></stop><stop offset="1" stop-color="#89e875"></stop></linearGradient><linearGradient x1="357.84313" y1="11.5" x2="357.84313" y2="84.5" gradientUnits="userSpaceOnUse" id="color-5"><stop offset="0" stop-color="#ccb65c"></stop><stop offset="1" stop-color="#ffe645"></stop></linearGradient><linearGradient x1="353.57039" y1="98.5" x2="353.57039" y2="175.50001" gradientUnits="userSpaceOnUse" id="color-6"><stop offset="0" stop-color="#a67f47"></stop><stop offset="1" stop-color="#e0caaf"></stop></linearGradient><linearGradient x1="430.57039" y1="105.50001" x2="430.57039" y2="182.50001" gradientUnits="userSpaceOnUse" id="color-7"><stop offset="0" stop-color="#6ef8ff"></stop><stop offset="1" stop-color="#b9cfff"></stop></linearGradient><linearGradient x1="275.07036" y1="91" x2="275.07036" y2="168" gradientUnits="userSpaceOnUse" id="color-8"><stop offset="0" stop-color="#ffa2ff"></stop><stop offset="1" stop-color="#839cff"></stop></linearGradient><linearGradient x1="432.57041" y1="188.50001" x2="432.57041" y2="265.50001" gradientUnits="userSpaceOnUse" id="color-9"><stop offset="0" stop-color="#defb00"></stop><stop offset="1" stop-color="#00f710"></stop></linearGradient></defs><g transform="translate(-100.32034,-6.33333)"><g data-paper-data="{&quot;isPaintingLayer&quot;:true}" fill-rule="nonzero" stroke="none" stroke-width="0" stroke-linecap="butt" stroke-linejoin="miter" stroke-miterlimit="10" stroke-dasharray="" stroke-dashoffset="0" style="mix-blend-mode: normal"><path d="M166.82034,51c0,21.26297 -14.88653,38.5 -33.25,38.5c-18.36347,0 -33.25,-17.23703 -33.25,-38.5c0,-21.26296 14.88653,-38.5 33.25,-38.5c18.36347,0 33.25,17.23703 33.25,38.5z" fill="url(#color-1)"></path><path d="M237.03246,42.66441c0,20.0651 -14.93401,36.33108 -33.35606,36.33108c-18.42204,0 -33.35605,-16.26598 -33.35605,-36.33108c0,-20.0651 14.93401,-36.33108 33.35605,-36.33108c18.42205,0 33.35606,16.26598 33.35606,36.33108z" fill="url(#color-2)"></path><path d="M312.42924,42.66667c0,20.06634 -14.8736,36.33333 -33.22112,36.33333c-18.34751,0 -33.22112,-16.26699 -33.22112,-36.33333c0,-20.06634 14.8736,-36.33333 33.22112,-36.33333c18.34751,0 33.22112,16.26699 33.22112,36.33333z" fill="url(#color-3)"></path><path d="M469.32039,59.5c0,21.53911 -15.33425,39 -34.25,39c-18.91575,0 -34.25,-17.46089 -34.25,-39c0,-21.5391 15.33425,-39 34.25,-39c18.91575,0 34.25,17.46089 34.25,39z" fill="url(#color-4)"></path><path d="M394.36587,48c0,20.15839 -16.35178,36.5 -36.52273,36.5c-20.17094,0 -36.52272,-16.34161 -36.52272,-36.5c0,-20.15839 16.35178,-36.5 36.52272,-36.5c20.17094,0 36.52273,16.34161 36.52273,36.5z" fill="url(#color-5)"></path><path d="M386.82039,137c0,21.26297 -14.88653,38.5 -33.25,38.5c-18.36347,0 -33.25,-17.23703 -33.25,-38.5c0,-21.26296 14.88653,-38.5 33.25,-38.5c18.36347,0 33.25,17.23703 33.25,38.5z" fill="url(#color-6)"></path><path d="M463.82039,144c0,21.26297 -14.88653,38.5 -33.25,38.5c-18.36347,0 -33.25,-17.23703 -33.25,-38.5c0,-21.26296 14.88653,-38.5 33.25,-38.5c18.36347,0 33.25,17.23703 33.25,38.5z" fill="url(#color-7)"></path><path d="M308.32036,129.5c0,21.26297 -14.88653,38.5 -33.25,38.5c-18.36347,0 -33.25,-17.23703 -33.25,-38.5c0,-21.26296 14.88653,-38.5 33.25,-38.5c18.36347,0 33.25,17.23703 33.25,38.5z" fill="url(#color-8)"></path><path d="M465.82041,227.00001c0,21.26297 -14.88653,38.5 -33.25,38.5c-18.36347,0 -33.25,-17.23703 -33.25,-38.5c0,-21.26296 14.88653,-38.5 33.25,-38.5c18.36347,0 33.25,17.23703 33.25,38.5z" fill="url(#color-9)"></path></g></g></svg>