<svg version="1.1" xmlns="http://www.w3.org/2000/svg" xmlns:xlink="http://www.w3.org/1999/xlink" width="489.43294" height="382.15983" viewBox="0,0,489.43294,382.15983"><defs><linearGradient x1="247.4627" y1="15.82634" x2="247.4627" y2="389.70021" gradientUnits="userSpaceOnUse" id="color-1"><stop offset="0" stop-color="#000000"></stop><stop offset="1" stop-color="#000000" stop-opacity="0"></stop></linearGradient></defs><g transform="translate(0.97926,-7.54038)"><g data-paper-data="{&quot;isPaintingLayer&quot;:true}" fill-rule="nonzero" stroke-linecap="round" stroke-linejoin="miter" stroke-miterlimit="10" stroke-dasharray="" stroke-dashoffset="0" style="mix-blend-mode: normal"><path d="M77.04227,23.33385l69.06907,-1.5015l63.06306,22.52252l39.03904,-24.02402l43.54354,24.02402l63.06306,-28.52853l79.57958,10.51051l-4.5045,55.55556l58.55856,96.0961l-30.03003,22.52252l-10.51051,60.06006l-58.55856,3.003l-24.02402,40.54054l4.5045,34.53453l-4.5045,40.54054l-205.70571,10.51051l-60.06006,-48.04805l15.01502,-40.54054l-16.51652,-37.53754l-43.54354,21.02102l-13.51351,-37.53754l-34.53453,-22.52252l10.51051,-37.53754l7.50751,-58.55856l33.03303,-37.53754z" fill="url(#color-1)" stroke="none" stroke-width="0"></path><path d="M71.04227,16.33385l69.06907,-1.5015l63.06306,22.52252l39.03904,-24.02402l43.54354,24.02402l63.06306,-28.52853l79.57958,10.51051l-4.5045,55.55556l58.55856,96.0961l-30.03003,22.52252l-10.51051,60.06006l-58.55856,3.003l-24.02402,40.54054l4.5045,34.53453l-4.5045,40.54054l-205.70571,10.51051l-60.06006,-48.04805l15.01502,-40.54054l-16.51652,-37.53754l-43.54354,21.02102l-13.51351,-37.53754l-34.53453,-22.52252l10.51051,-37.53754l7.50751,-58.55856l33.03303,-37.53754z" fill="#ffffff" stroke="#00ff25" stroke-width="2.5"></path></g></g></svg>