<svg version="1.1" xmlns="http://www.w3.org/2000/svg" xmlns:xlink="http://www.w3.org/1999/xlink" width="54.15751" height="42.54543" viewBox="0,0,54.15751,42.54543"><g transform="translate(-213.84249,-151.3)"><g data-paper-data="{&quot;isPaintingLayer&quot;:true}" fill="#9966ff" fill-rule="nonzero" stroke="none" stroke-width="0.5" stroke-linecap="butt" stroke-linejoin="miter" stroke-miterlimit="10" stroke-dasharray="" stroke-dashoffset="0" style="mix-blend-mode: normal"><path d="M268,153.8c0,1.20974 -0.58539,1.83409 -1.18963,2.15632c-0.17827,0.81864 -0.42008,1.60982 -0.85388,2.31802c-1.03365,1.68751 -3.10982,2.42907 -5.26954,2.75743c0.21349,1.35764 0.27775,2.72389 0.31146,3.6791c0.21259,6.0236 0.40159,12.06016 0.40159,18.08912v0.4c0,0 0,1.56353 -1.23649,2.21762c0.35849,0.97079 0.42965,2.12076 0.0913,3.42194c-0.11013,0.42353 -0.32293,0.80313 -0.60298,1.14449c-1.51582,2.42007 -5.2611,3.35919 -8.21781,2.66653c-3.29996,-0.32982 -6.46764,-2.01484 -6.21451,-5.76225c0.11229,-1.66233 1.9397,-2.81835 3.34393,-3.71504c0.91604,-0.58495 2.41771,-0.9154 4.04182,-0.94451c1.22844,-0.41404 2.57106,-0.42427 3.79385,-0.08422c-0.01556,-5.75419 -0.23136,-11.50465 -0.39752,-17.25545c-0.02408,-0.83339 -0.2278,-1.66364 -0.17039,-2.4954c0.02479,-0.35914 0.44311,-0.7723 0.52591,-1.09702c-0.15642,0.00095 -0.30843,0.00159 -0.45541,0.00228c-0.11856,0.29136 -0.24494,0.66191 -0.46704,0.74319c-1.0397,0.38048 -2.18954,0.33729 -3.29132,0.44597c-5.12442,0.50548 -10.43592,0.39146 -15.53942,-0.20573c-1.8027,-0.21094 -3.68975,-0.00553 -5.01021,-0.67987c0.02996,3.95546 0.06137,7.91564 -0.6315,11.83052c-0.88273,4.98767 -2.36919,9.18769 -2.36221,14.36695c0,0 0,0.90582 -0.54524,1.62696c-1.63895,5.89633 -17.40865,6.77732 -13.62926,-2.86458c1.2574,-3.20786 5.5758,-4.07868 8.79437,-3.0207c0.22195,0.02351 0.44277,0.057 0.66084,0.10048c0.48133,-3.74097 1.47779,-7.2132 2.15708,-11.07521c0.6873,-3.90752 0.55797,-7.86866 0.5779,-11.81424l-0.53938,-2.33729c-0.04984,-0.19687 -0.07631,-0.40305 -0.07631,-0.61541c0,-1.38071 1.11929,-2.5 2.5,-2.5c0.36939,0 0.72006,0.08011 1.0356,0.22391l2.47727,1.06169c5.51054,0.72416 10.9611,1.27288 16.60912,1.11562c2.4981,-0.06956 3.00697,-0.18514 5.04497,-0.45346c0.72352,-0.94776 2.03304,-0.94776 2.03304,-0.94776c1.25542,0.00873 3.16502,-0.60264 4.80699,-0.89874c-0.19569,-0.35649 -0.30699,-0.76588 -0.30699,-1.20126c0,-1.26478 0.93921,-2.31019 2.15823,-2.47683l2.56163,-0.3941l0.58014,-0.02907c0,0 2.5,0 2.5,2.5z"/></g></g></svg>